HIERARCHY
ROOT Hips
{
	OFFSET 0.000000 0.000000 0.000000
	CHANNELS 6 Xposition Yposition Zposition Zrotation Yrotation Xrotation 
	JOINT LHipJoint
	{
		OFFSET 0.000000 0.000000 0.000000
		CHANNELS 3 Zrotation Yrotation Xrotation
		JOINT LeftUpLeg
		{
			OFFSET 1.363060 -1.794630 0.839290
			CHANNELS 3 Zrotation Yrotation Xrotation
			JOINT LeftLeg
			{
				OFFSET 2.448110 -6.726130 0.000000
				CHANNELS 3 Zrotation Yrotation Xrotation
				JOINT LeftFoot
				{
					OFFSET 2.562200 -7.039590 0.000000
					CHANNELS 3 Zrotation Yrotation Xrotation
					JOINT LeftToeBase
					{
						OFFSET 0.157640 -0.433110 2.322550
						CHANNELS 3 Zrotation Yrotation Xrotation
						End Site
						{
							OFFSET 0.000000 0.000000 0.000000
						}
					}
				}
			}
		}
	}
	JOINT RHipJoint
	{
		OFFSET 0.000000 0.000000 0.000000
		CHANNELS 3 Zrotation Yrotation Xrotation
		JOINT RightUpLeg
		{
			OFFSET -1.305520 -1.794630 0.839290
			CHANNELS 3 Zrotation Yrotation Xrotation
			JOINT RightLeg
			{
				OFFSET -2.542530 -6.985550 0.000000
				CHANNELS 3 Zrotation Yrotation Xrotation
				JOINT RightFoot
				{
					OFFSET -2.568260 -7.056230 0.000000
					CHANNELS 3 Zrotation Yrotation Xrotation
					JOINT RightToeBase
					{
						OFFSET -0.164730 -0.452590 2.363150
						CHANNELS 3 Zrotation Yrotation Xrotation
						End Site
						{
							OFFSET 0.000000 0.000000 0.000000
						}
					}
				}
			}
		}
	}
	JOINT LowerBack
	{
		OFFSET 0.000000 0.000000 0.000000
		CHANNELS 3 Zrotation Yrotation Xrotation
		JOINT Spine
		{
			OFFSET 0.028270 2.035590 -0.193380
			CHANNELS 3 Zrotation Yrotation Xrotation
			JOINT Spine1
			{
				OFFSET 0.056720 2.048850 -0.042750
				CHANNELS 3 Zrotation Yrotation Xrotation
				JOINT Neck
				{
					OFFSET 0.000000 0.000000 0.000000
					CHANNELS 3 Zrotation Yrotation Xrotation
					JOINT Neck1
					{
						OFFSET -0.054170 1.746240 0.172020
						CHANNELS 3 Zrotation Yrotation Xrotation
						JOINT Head
						{
							OFFSET 0.104070 1.761360 -0.123970
							CHANNELS 3 Zrotation Yrotation Xrotation
							End Site
							{
								OFFSET 0.000000 0.000000 0.000000
							}
						}
					}
				}
				JOINT LeftShoulder
				{
					OFFSET 0.000000 0.000000 0.000000
					CHANNELS 3 Zrotation Yrotation Xrotation
					JOINT LeftArm
					{
						OFFSET 3.362410 1.200890 -0.311210
						CHANNELS 3 Zrotation Yrotation Xrotation
						JOINT LeftForeArm
						{
							OFFSET 4.983000 -0.000000 -0.000000
							CHANNELS 3 Zrotation Yrotation Xrotation
							JOINT LeftHand
							{
								OFFSET 3.483560 -0.000000 -0.000000
								CHANNELS 3 Zrotation Yrotation Xrotation
								JOINT LeftFingerBase
								{
									OFFSET 0.000000 0.000000 0.000000
									CHANNELS 3 Zrotation Yrotation Xrotation
									JOINT LeftHandIndex1
									{
										OFFSET 0.715260 -0.000000 -0.000000
										CHANNELS 3 Zrotation Yrotation Xrotation
										End Site
										{
											OFFSET 0.000000 0.000000 0.000000
										}
									}
								}
								JOINT LThumb
								{
									OFFSET 0.000000 0.000000 0.000000
									CHANNELS 3 Zrotation Yrotation Xrotation
									End Site
									{
										OFFSET 0.000000 0.000000 0.000000
									}
								}
							}
						}
					}
				}
				JOINT RightShoulder
				{
					OFFSET 0.000000 0.000000 0.000000
					CHANNELS 3 Zrotation Yrotation Xrotation
					JOINT RightArm
					{
						OFFSET -3.136600 1.374050 -0.404650
						CHANNELS 3 Zrotation Yrotation Xrotation
						JOINT RightForeArm
						{
							OFFSET -5.241900 -0.000000 -0.000000
							CHANNELS 3 Zrotation Yrotation Xrotation
							JOINT RightHand
							{
								OFFSET -3.444170 -0.000000 -0.000000
								CHANNELS 3 Zrotation Yrotation Xrotation
								JOINT RightFingerBase
								{
									OFFSET 0.000000 0.000000 0.000000
									CHANNELS 3 Zrotation Yrotation Xrotation
									JOINT RightHandIndex1
									{
										OFFSET -0.622530 -0.000000 -0.000000
										CHANNELS 3 Zrotation Yrotation Xrotation
										End Site
										{
											OFFSET 0.000000 0.000000 0.000000
										}
									}
								}
								JOINT RThumb
								{
									OFFSET 0.000000 0.000000 0.000000
									CHANNELS 3 Zrotation Yrotation Xrotation
									End Site
									{
										OFFSET 0.000000 0.000000 0.000000
									}
								}
							}
						}
					}
				}
			}
		}
	}
}
MOTION
Frames: 4
Frame Time: 0.008333
-10.211029 16.802331 -0.899082 172.575225 84.565979 179.416147 -11.409259 5.689898 0.251079 -1.801999 9.093587 5.936379 -0.570654 2.365631 29.749071 0.609656 -8.915496 22.800601 -4.551600 0.000000 -89.768100 9.132700 0.023727 1.588914 10.250908 -2.672187 -33.986997 1.921384 -0.865529 21.999577 -1.710190 -7.943495 -2.315024 -1.533100 0.000000 -24.447500 5.694036 -6.888876 -3.131771 1.275916 -7.310685 -3.670183 -4.182326 -7.365497 -0.175206 7.558413 -19.051668 -8.663905 -2.898042 -0.219061 -0.145706 0.000000 0.000000 0.000000 11.426558 -1.412829 -2.709502 -52.658381 -16.808490 6.175258 178.737512 -77.498592 179.839153 14.763254 -4.976257 -0.747608 -0.212213 0.730287 -0.000000 0.000000 0.000000 0.000000 0.000000 0.000000 0.000000 11.123137 -18.759135 2.195503 66.890873 -31.822854 -10.160276 3.318802 39.339102 -0.008820 0.036686 -4.425649 0.003573 0.121122 0.028458 -0.000000 0.000000 0.000000 0.000000 0.000000 0.000000 0.000000 
-10.012389 16.746350 -0.908754 178.183512 84.805612 -175.237616 -11.716913 5.717586 0.170853 -0.607774 9.839576 4.697969 -0.403592 2.502897 33.002752 0.781526 -8.854429 24.046731 -4.790100 0.000001 -87.806001 8.981637 -0.016157 1.387436 11.085109 -2.828605 -34.458321 1.873565 -1.121815 25.039783 -1.690922 -7.645561 -3.335907 -1.290900 0.000000 -23.031401 6.478240 -6.749152 -2.921734 1.399744 -7.223715 -3.662777 -4.318165 -7.281626 -0.234904 7.667672 -18.860700 -8.770913 -3.002607 -0.226360 -0.178997 0.000000 0.000000 0.000000 10.820302 -1.350909 -2.546575 -53.200614 -15.637859 6.278130 178.764641 -77.905894 179.840104 14.929149 -5.151077 -0.778765 -0.218919 0.724779 -0.000000 0.000000 0.000000 0.000000 0.000000 0.000000 0.000000 11.557586 -18.459060 2.224652 66.834446 -30.386305 -10.363612 3.306082 38.957515 -0.008682 -0.219848 -4.454417 0.013577 0.120084 0.024110 -0.000000 0.000000 0.000000 0.000000 0.000000 0.000000 0.000000 
-9.819762 16.687178 -0.919471 -176.028089 84.995201 -169.718153 -12.066088 5.713349 0.071451 0.572268 10.568471 3.365990 -0.251084 2.648567 36.405535 0.957521 -8.475230 25.135781 -4.847100 -0.000000 -84.519500 8.789093 -0.054741 1.162867 11.944711 -3.045131 -34.871412 1.821054 -1.349805 28.000468 -1.688193 -7.399657 -4.528573 -1.037500 -0.000000 -21.715600 7.217223 -6.597930 -2.648016 1.504927 -7.120338 -3.644197 -4.485340 -7.182070 -0.316982 7.849919 -18.624175 -8.876564 -3.120939 -0.234626 -0.213554 0.000000 0.000000 0.000000 10.161292 -1.328395 -2.369586 -53.775255 -14.494144 6.374882 178.797455 -78.477535 179.840807 15.173774 -5.273969 -0.807331 -0.226963 0.716415 -0.000000 0.000000 0.000000 0.000000 0.000000 0.000000 0.000000 12.111621 -18.120313 2.258215 66.775554 -28.821307 -10.529559 3.286199 38.526668 -0.008279 -0.593217 -4.360462 0.027483 0.118893 0.018794 -0.000000 0.000000 0.000000 0.000000 0.000000 0.000000 0.000000 
-9.633866 16.625231 -0.930511 -170.382497 85.115022 -164.356150 -12.444530 5.665200 -0.054215 1.709247 11.261132 1.978376 -0.108632 2.807499 39.919004 1.127894 -7.738426 25.952110 -4.670500 0.000000 -79.934200 8.559284 -0.104435 0.919590 12.802781 -3.310126 -35.192744 1.765482 -1.552985 30.838927 -1.702978 -7.211066 -5.855458 -0.776900 0.000001 -20.551800 7.888109 -6.445802 -2.302976 1.586051 -7.009071 -3.612981 -4.686658 -7.075082 -0.425359 8.107136 -18.319628 -8.970079 -3.255800 -0.244162 -0.246540 0.000000 0.000000 0.000000 9.446900 -1.353326 -2.174179 -54.354672 -13.382464 6.444858 178.838610 -79.217884 179.841613 15.472124 -5.315489 -0.827618 -0.235711 0.704404 -0.000000 0.000000 0.000000 0.000000 0.000000 0.000000 0.000000 12.798974 -17.727848 2.292848 66.713316 -27.153847 -10.655471 3.254327 38.067150 -0.007697 -1.135639 -4.159374 0.045893 0.117635 0.012619 -0.000000 0.000000 0.000000 0.000000 0.000000 0.000000 0.000000 
